<svg width="362" height="500" viewBox="0 0 362 500" fill="none" xmlns="http://www.w3.org/2000/svg">
<mask id="mask0_539_95" style="mask-type:alpha" maskUnits="userSpaceOnUse" x="0" y="0" width="362" height="500">
<rect width="362" height="500" fill="#54ADC9"/>
</mask>
<g mask="url(#mask0_539_95)">
<path d="M406 479.115C406 539.336 229.021 584 142.557 584C56.0929 584 -33.5 539.336 -33.5 479.115C-33.5 418.895 -61.4636 394.5 25.0002 394.5C111.464 394.5 406 418.895 406 479.115Z" fill="url(#paint0_linear_539_95)"/>
<path opacity="0.8" fill-rule="evenodd" clip-rule="evenodd" d="M417.5 54.5099C459.75 54.5099 434 -0.746865 406 -0.746865C406 -26.7192 370.245 -59.3118 323.5 -33.6658C312.283 -27.5116 301.765 -24.9883 292.992 -22.8836C278.3 -19.3591 268.5 -17.0082 268.5 -0.746865C268.5 1.18185 269.089 3.12883 270.196 5.08073C263.806 7.39219 257.826 8.82672 252.492 10.1065C237.8 13.631 228 15.9819 228 32.2432C228 58.2155 334.751 87.5 377 87.5C401.877 87.5 403.179 68.3438 394.329 52.5894C403.144 53.8314 411.07 54.5099 417.5 54.5099Z" fill="url(#paint1_linear_539_95)"/>
<path opacity="0.8" fill-rule="evenodd" clip-rule="evenodd" d="M446.283 92.5681C504.091 92.5681 468.859 65.0456 430.548 65.0456C430.548 52.1092 381.626 35.8754 317.668 48.6492C302.32 51.7145 287.929 52.9713 275.924 54.0197C255.823 55.7751 242.414 56.9461 242.414 65.0456C242.414 66.0063 243.219 66.976 244.734 67.9483C235.992 69.0996 227.81 69.8141 220.511 70.4515C200.409 72.207 187 73.378 187 81.4775C187 94.4139 333.061 109 390.869 109C424.906 109 426.688 99.4586 414.578 91.6116C426.64 92.2302 437.484 92.5681 446.283 92.5681Z" fill="url(#paint2_linear_539_95)"/>
</g>
<path d="M325 166.918C325 173.591 319.627 179 313 179C306.373 179 301 173.591 301 166.918C301 160.245 310.789 142.178 313 137C316.158 144.192 325 160.245 325 166.918Z" fill="#A6DCE0"/>
<path d="M355 141.219C355 146.621 351.642 151 347.5 151C343.358 151 340 146.621 340 141.219C340 135.817 346.118 121.192 347.5 117C349.474 122.822 355 135.817 355 141.219Z" fill="#A6DCE0"/>
<path d="M294 128.658C294 133.265 290.866 137 287 137C283.134 137 280 133.265 280 128.658C280 124.05 285.711 111.575 287 108C288.842 112.966 294 124.05 294 128.658Z" fill="#A6DCE0"/>
<defs>
<linearGradient id="paint0_linear_539_95" x1="196" y1="386" x2="196" y2="584" gradientUnits="userSpaceOnUse">
<stop stop-color="#384E41"/>
<stop offset="1" stop-color="#0E1F13"/>
</linearGradient>
<linearGradient id="paint1_linear_539_95" x1="346.5" y1="-47.7739" x2="346.5" y2="46.2802" gradientUnits="userSpaceOnUse">
<stop stop-color="#C4C4C4"/>
<stop offset="1" stop-color="#505050"/>
</linearGradient>
<linearGradient id="paint2_linear_539_95" x1="349.137" y1="41.6222" x2="349.137" y2="88.469" gradientUnits="userSpaceOnUse">
<stop stop-color="#C4C4C4"/>
<stop offset="1" stop-color="#505050"/>
</linearGradient>
</defs>
</svg>
